<svg xmlns="http://www.w3.org/2000/svg" width="48" height="48" viewBox="0 0 48 48">
    <g fill="none" fill-rule="evenodd">
        <g fill="#FFF">
            <g>
                <g>
                    <g>
                        <path fill-opacity="0" d="M0 0H48V48H0z" transform="translate(-155.000000, -231.000000) translate(120.000000, 30.000000) translate(25.000000, 191.000000) translate(10.000000, 10.000000)"/>
                        <g>
                            <path d="M25 0c2.761 0 5 2.239 5 5v4c0 2.761-2.239 5-5 5l-3.342.001c-.716 2.026-2.49 3.552-4.657 3.916v-2.043c1.146-.296 2.094-1.087 2.6-2.131l.093-.207.082-.212c.03-.089.059-.18.084-.27l.059-.248.024-.13.03-.216c.018-.151.027-.304.027-.46h5c1.598 0 2.904-1.249 2.995-2.824L28 9V5c0-1.598-1.249-2.904-2.824-2.995L25 2H15c-1.598 0-2.904 1.249-2.995 2.824L12 5v2.342C11.376 7.12 10.703 7 10 7V5c0-2.761 2.239-5 5-5h10zm-9.083 12H18c0 1.054-.816 1.918-1.85 1.995L16 14h-.083c.055-.325.083-.659.083-1 0-.34-.028-.675-.083-1z" transform="translate(-155.000000, -231.000000) translate(120.000000, 30.000000) translate(25.000000, 191.000000) translate(10.000000, 10.000000) translate(9.000000, 10.000000)"/>
                            <path d="M10 16c1.657 0 3-1.343 3-3s-1.343-3-3-3-3 1.343-3 3 1.343 3 3 3zm0 2c-2.761 0-5-2.239-5-5s2.239-5 5-5 5 2.239 5 5-2.239 5-5 5zm-8 9.429c0 .552-.448 1-1 1s-1-.448-1-1C0 22.504 3.506 20 10 20s10 2.504 10 7.429c0 .552-.448 1-1 1s-1-.448-1-1C18 23.78 15.506 22 10 22s-8 1.781-8 5.429z" transform="translate(-155.000000, -231.000000) translate(120.000000, 30.000000) translate(25.000000, 191.000000) translate(10.000000, 10.000000) translate(9.000000, 10.000000)"/>
                        </g>
                    </g>
                </g>
            </g>
        </g>
    </g>
</svg>
