<svg xmlns="http://www.w3.org/2000/svg" width="48" height="48" viewBox="0 0 48 48">
    <g fill="none" fill-rule="evenodd">
        <g>
            <g>
                <g>
                    <g>
                        <path fill="#FFF" fill-opacity="0" d="M0 0H48V48H0z" transform="translate(-155.000000, -304.000000) translate(120.000000, 30.000000) translate(25.000000, 264.000000) translate(10.000000, 10.000000)"/>
                        <path fill="#FFF" d="M24 11c2.21 0 4 1.79 4 4l.001 1.07c-.62-.357-1.29-.635-2-.818L26 15c0-1.054-.816-1.918-1.85-1.995L24 13c-1.105 0-2 .895-2 2v.252c-.71.183-1.382.46-2 .819V15c0-2.21 1.79-4 4-4z" transform="translate(-155.000000, -304.000000) translate(120.000000, 30.000000) translate(25.000000, 264.000000) translate(10.000000, 10.000000)"/>
                        <path fill="#FFF" d="M32 28.998c2.142 0 3.891 1.684 3.995 3.8l.005.2V36c0 .552-.448 1-1 1-.513 0-.936-.386-.993-.883L34 36v-3.002c0-1.054-.816-1.918-1.85-1.994l-.15-.006h-.252C30.861 34.45 27.728 37 24 37c-3.728 0-6.86-2.55-7.748-6.002H16l-.15.006c-1.034.076-1.85.94-1.85 1.994V36l-.007.117c-.057.497-.48.883-.993.883-.552 0-1-.448-1-1v-3.002l.005-.2c.104-2.116 1.853-3.8 3.995-3.8v-3h-2l-.15.006c-1.034.076-1.85.94-1.85 1.994 0 .553-.448 1-1 1s-1-.447-1-1c0-2.209 1.79-4 4-4h2V23c0-.339.021-.672.062-1H16c-2.142 0-3.891-1.684-3.995-3.8L12 18v-1c0-.552.448-1 1-1 .513 0 .936.386.993.883L14 17v1c0 1.054.816 1.918 1.85 1.995L16 20h.582c1.186-2.932 4.06-5 7.418-5 3.357 0 6.232 2.068 7.418 5H32l.15-.005C33.183 19.918 34 19.055 34 18v-1l.007-.117c.057-.497.48-.883.993-.883.552 0 1 .448 1 1v1l-.005.2C35.891 20.316 34.142 22 32 22h-.062c.041.328.062.661.062 1v.998h2c2.21 0 4 1.791 4 4 0 .553-.448 1-1 1s-1-.447-1-1c0-1.054-.816-1.918-1.85-1.994l-.15-.006h-2v3zM24 17c-3.314 0-6 2.686-6 6v6c0 3.314 2.686 6 6 6s6-2.686 6-6v-6c0-3.314-2.686-6-6-6z" transform="translate(-155.000000, -304.000000) translate(120.000000, 30.000000) translate(25.000000, 264.000000) translate(10.000000, 10.000000)"/>
                    </g>
                </g>
            </g>
        </g>
    </g>
</svg>
