<svg xmlns="http://www.w3.org/2000/svg" width="180" height="90" viewBox="0 0 180 90">
    <g fill="none" fill-rule="evenodd">
        <g>
            <g>
                <g>
                    <path fill="#299FFF" fill-rule="nonzero" d="M156.698 64.564c.7 0 1.283.5 1.41 1.163l.02.135.006.138c0 .746-.57 1.36-1.297 1.43l-.139.006h-17.14l-.15-.15v-2.572c0-4.177-3.386-7.564-7.564-7.564-4.096 0-7.431 3.255-7.56 7.32l-.004.244v2.572l-.15.15h-19.844c-.793 0-1.436-.643-1.436-1.436 0-.746.57-1.36 1.297-1.43l.139-.006h17.124l.002-.132c.145-5.444 4.458-9.848 9.864-10.138l.286-.012.282-.003c5.67 0 10.282 4.52 10.432 10.153l.001.132h14.421z" transform="translate(-3610.000000, -308.000000) translate(3400.000000, 100.000000) translate(210.000000, 208.000000)"/>
                    <path fill="#4A90E2" d="M110 14c5.523 0 10 4.477 10 10v8c0 5.523-4.477 10-10 10l-6.684.002c-1.432 4.051-4.979 7.103-9.313 7.832l-.001-4.087c2.293-.59 4.188-2.172 5.2-4.261l.187-.413.162-.425c.063-.178.119-.358.169-.542l.118-.494.048-.26.062-.432c.034-.302.052-.609.052-.92h10c3.195 0 5.807-2.498 5.99-5.647L116 32v-8c0-3.195-2.498-5.807-5.647-5.99L110 18H90c-3.195 0-5.807 2.498-5.99 5.647L84 24l.001 4H80v-4c0-5.523 4.477-10 10-10h20zM92 38h4c0 2.109-1.632 3.836-3.701 3.989L92 42v-4z" transform="translate(-3610.000000, -308.000000) translate(3400.000000, 100.000000) translate(210.000000, 208.000000)"/>
                    <path fill="#000" fill-opacity=".7" d="M80 46c3.314 0 6-2.686 6-6s-2.686-6-6-6-6 2.686-6 6 2.686 6 6 6zm0 4c-5.523 0-10-4.477-10-10s4.477-10 10-10 10 4.477 10 10-4.477 10-10 10zM64 68.857c0 1.105-.895 2-2 2s-2-.895-2-2C60 59.01 67.012 54 80 54s20 5.009 20 14.857c0 1.105-.895 2-2 2s-2-.895-2-2C96 61.563 91.012 58 80 58s-16 3.563-16 10.857z" transform="translate(-3610.000000, -308.000000) translate(3400.000000, 100.000000) translate(210.000000, 208.000000)"/>
                    <path fill="#55B6FF" d="M48 67.75c3.023 0 5.63 2.023 6.429 4.863l.071.278 53.071.002c.849 0 1.536.687 1.536 1.536 0 .848-.687 1.535-1.536 1.535H51.607V74.43c0-1.993-1.615-3.608-3.607-3.608-1.928 0-3.503 1.513-3.602 3.416l-.005.192v1.535H31.286c-.848 0-1.536-.687-1.536-1.535 0-.849.688-1.536 1.536-1.536l10.213-.001.01-.041c.678-2.801 3.098-4.864 5.984-5.082l.256-.014.251-.005z" transform="translate(-3610.000000, -308.000000) translate(3400.000000, 100.000000) translate(210.000000, 208.000000)"/>
                    <path fill="#2E70BE" d="M132.658 38.975l-.123.041c-5.648 1.96-9.805 7.11-10.315 13.294h-2.58c.501-7.09 5.107-13.046 11.456-15.505.465.766.987 1.491 1.562 2.17z" transform="translate(-3610.000000, -308.000000) translate(3400.000000, 100.000000) translate(210.000000, 208.000000) translate(126.149476, 44.557365) scale(-1, 1) translate(-126.149476, -44.557365)"/>
                </g>
            </g>
        </g>
    </g>
</svg>
